<svg width="56" height="56" viewBox="0 0 56 56" fill="none" xmlns="http://www.w3.org/2000/svg">
<g id="Group">
<g id="Group_2">
<path id="Vector" d="M29.3543 0.0326806C29.1328 0.0217884 28.904 0.0145244 28.6789 0.00726296C28.4538 0.00363226 28.2251 0 28 0C12.5586 0 0 12.5622 0 28C0 43.4378 12.5622 56 28 56C43.4378 56 56 43.4378 56 28C56 12.5622 44.1639 0.740668 29.3543 0.0326806ZM4.01919 28C4.01919 14.777 14.777 4.01919 28 4.01919C41.223 4.01919 51.9808 14.777 51.9808 28C51.9808 41.223 41.223 51.9808 28 51.9808C14.777 51.9808 4.01919 41.223 4.01919 28Z" fill="url(#paint0_linear_59_1284)"/>
<path id="Vector_2" d="M42.018 16.211C41.6767 15.6192 41.2229 15.169 40.6601 14.8531C40.0974 14.5372 39.4547 14.3194 38.7322 14.2032C38.5906 14.1814 38.449 14.1596 38.3074 14.1415C39.9703 15.3795 41.4008 16.9117 42.5263 18.6581C42.5263 18.6109 42.5263 18.5637 42.5263 18.5128C42.5263 17.5688 42.3557 16.8028 42.0144 16.211H42.018ZM46.4729 17.4055C46.5201 17.7831 46.5419 18.1498 46.5419 18.5165C46.5419 19.406 46.3858 20.2665 46.0699 21.0906C45.754 21.9184 45.3038 22.6664 44.712 23.3344C44.6938 23.3562 44.6721 23.378 44.6539 23.3998C45.0605 24.8666 45.2784 26.4096 45.2784 28.0035C45.2784 29.9024 44.9698 31.7286 44.4034 33.4387L47.003 37.6176C48.4698 34.7276 49.2976 31.4599 49.2976 28.0035C49.2976 24.1477 48.2665 20.5279 46.4693 17.4055H46.4729ZM42.3412 37.6358C39.2333 42.2468 33.9651 45.282 27.9999 45.282C18.4729 45.282 10.7177 37.5305 10.7177 28.0035C10.7177 18.4765 18.3712 10.8266 27.8147 10.725C27.8764 10.725 27.9381 10.725 27.9999 10.725H37.614C38.8811 10.725 39.9884 10.8484 40.9397 11.0917C37.3489 8.3396 32.865 6.70215 28.0035 6.70215C16.2582 6.70215 6.70215 16.2582 6.70215 28.0035C6.70215 39.7488 16.2582 49.3048 28.0035 49.3048C35.9003 49.3048 42.8095 44.9843 46.4874 38.5834H42.8894L42.3448 37.6358H42.3412ZM42.0216 16.211C41.6804 15.6192 41.2265 15.169 40.6638 14.8531C40.101 14.5372 39.4584 14.3194 38.7359 14.2032C38.5943 14.1814 38.4527 14.1596 38.3111 14.1415C39.9739 15.3795 41.4044 16.9117 42.5299 18.6581C42.5299 18.6109 42.5299 18.5637 42.5299 18.5128C42.5299 17.5688 42.3593 16.8028 42.018 16.211H42.0216Z" fill="url(#paint1_linear_59_1284)"/>
<path id="Vector_3" d="M32.2227 14.0264H31.5909V18.0492C34.0453 18.9387 36.0785 20.7069 37.3057 22.9761C37.7849 22.9507 38.2605 22.8962 38.7325 22.82C39.455 22.7038 40.0977 22.4859 40.6604 22.1701C40.8565 22.0612 41.038 21.9341 41.2087 21.7888C39.4623 18.0819 36.1983 15.2282 32.2227 14.0228V14.0264ZM38.2605 30.5679C37.4037 33.9917 34.8731 36.7619 31.5873 37.9527V38.5809H27.9965C27.9348 38.5809 27.8731 38.5809 27.8114 38.5809C22.0603 38.4792 17.4166 33.7738 17.4166 28.0046C17.4166 22.2354 22.0603 17.5264 27.8114 17.4284V13.4092C19.8456 13.5072 13.3975 20.0207 13.3975 28.0082C13.3975 35.9958 19.9472 42.6073 28.0002 42.6073C33.5188 42.6073 38.3331 39.5285 40.8129 34.9973L38.2605 30.5752V30.5679ZM42.316 25.1436C41.5245 25.5321 40.6495 25.7754 39.6947 25.8698L42.4249 30.2556C42.5375 29.5222 42.5992 28.7671 42.5992 28.001C42.5992 27.0243 42.5012 26.0695 42.316 25.1436Z" fill="url(#paint2_linear_59_1284)"/>
<path id="Vector_4" d="M31.5908 20.964V22.9972H34.1105C33.4207 22.1549 32.5638 21.4614 31.5908 20.964ZM27.8149 24.1263V20.1035C23.5379 20.2015 20.0996 23.6979 20.0996 28.0003C20.0996 32.3027 23.5379 35.7991 27.8149 35.8971V31.8743C25.7599 31.7762 24.1224 30.0771 24.1224 28.0003C24.1224 25.9235 25.7635 24.2244 27.8149 24.1263ZM35.7153 26.3011H31.5908V26.5371C31.776 26.9873 31.8776 27.4811 31.8776 28.0003C31.8776 28.5195 31.776 29.0133 31.5908 29.4635V35.0366C34.1468 33.7296 35.9004 31.0682 35.9004 28.0003C35.9004 27.4194 35.8351 26.8494 35.7153 26.3011Z" fill="url(#paint3_linear_59_1284)"/>
</g>
<path id="Vector_5" d="M42.5301 18.5132C42.5301 18.5604 42.5301 18.6112 42.5301 18.6584C42.512 19.5371 42.345 20.256 42.0182 20.8151C41.7967 21.1999 41.5281 21.5267 41.2086 21.7917C41.0379 21.937 40.8564 22.064 40.6603 22.173C40.0976 22.4888 39.4549 22.7067 38.7324 22.8229C38.2604 22.8991 37.7848 22.9536 37.3056 22.979C37.055 22.9935 36.8009 23.0008 36.5467 23.0008H31.5908V14.0293H36.5467C37.1385 14.0293 37.7231 14.0692 38.3076 14.1455C38.4492 14.1636 38.5908 14.1854 38.7324 14.2072C39.4549 14.3234 40.0976 14.5412 40.6603 14.8571C41.2231 15.1693 41.6769 15.6232 42.0182 16.215C42.3595 16.8068 42.5301 17.5729 42.5301 18.5169V18.5132Z" fill="#1877F2"/>
<path id="Vector_6" d="M54.326 26.3304C54.326 40.8714 42.5371 52.6603 27.9961 52.6603V38.5804H31.5869V26.3014H35.7985L38.2601 30.5675L40.8125 34.9897L42.3374 37.6328L42.882 38.5804H47.6019L47.0028 37.6147L44.4033 33.4357L42.4281 30.2589L39.6979 25.873C40.6527 25.7786 41.5277 25.5353 42.3192 25.1468C42.3991 25.1069 42.4753 25.0706 42.5516 25.027C43.3758 24.5841 44.0801 24.0431 44.6574 23.4004C44.6792 23.3787 44.6973 23.3569 44.7155 23.3351C45.3073 22.667 45.7575 21.9191 46.0734 21.0913C46.3893 20.2672 46.5454 19.4067 46.5454 18.5172C46.5454 18.1541 46.5236 17.7838 46.4764 17.4062C46.4147 16.887 46.3057 16.3605 46.1533 15.8195C45.8882 14.8901 45.4235 14.0477 44.7554 13.3035C44.0874 12.5555 43.1761 11.9383 42.0215 11.4554C41.6875 11.3138 41.328 11.194 40.9396 11.096C39.9883 10.8527 38.881 10.7293 37.6138 10.7293H27.9997V0.0078125C28.2248 0.0078125 28.4536 0.00781405 28.6787 0.0150755C28.9038 0.0223369 29.1289 0.0295954 29.354 0.0404875C43.2668 0.748475 54.3296 12.2505 54.3296 26.3377L54.326 26.3304Z" fill="#1877F2"/>
</g>
<defs>
<linearGradient id="paint0_linear_59_1284" x1="0.991183" y1="35.4066" x2="55.0052" y2="20.5934" gradientUnits="userSpaceOnUse">
<stop stop-color="#1877F2"/>
<stop offset="1" stop-color="#1818F2"/>
</linearGradient>
<linearGradient id="paint1_linear_59_1284" x1="7.4537" y1="33.6347" x2="48.5424" y2="22.365" gradientUnits="userSpaceOnUse">
<stop stop-color="#1877F2"/>
<stop offset="1" stop-color="#1818F2"/>
</linearGradient>
<linearGradient id="paint2_linear_59_1284" x1="13.9167" y1="31.8641" x2="42.0437" y2="24.1488" gradientUnits="userSpaceOnUse">
<stop stop-color="#1877F2"/>
<stop offset="1" stop-color="#1818F2"/>
</linearGradient>
<linearGradient id="paint3_linear_59_1284" x1="20.3574" y1="30.0117" x2="35.5846" y2="25.8364" gradientUnits="userSpaceOnUse">
<stop stop-color="#1877F2"/>
<stop offset="1" stop-color="#1818F2"/>
</linearGradient>
</defs>
</svg>
